<?xml version="1.0" encoding="utf-8" ?><svg xmlns="http://www.w3.org/2000/svg" xmlns:xlink="http://www.w3.org/1999/xlink" width="373" height="386" viewBox="0 0 373 386"><clipPath id="cl_7"><rect width="373" height="386"/></clipPath><g clip-path="url(#cl_7)"><path fill="#00FF94" transform="scale(0.364258 0.364495)" d="M102.397 101.952L309.569 101.986C389.874 101.934 419.195 96.0925 496.511 121.387C741.47 201.522 939.178 442.434 926.64 706.556C922.431 795.228 890.165 861.001 825.064 920.159C793.821 944.543 767.56 957.474 729.628 968.46C730.284 922.306 729.815 874.416 729.757 828.105C728.905 789.307 731.375 749.187 727.461 710.588C706.122 500.238 540.298 329.989 331.101 300.801C248.725 289.308 168.626 304.02 102.211 355.17L102.397 101.952Z"/><path fill="#00FF94" transform="scale(0.364258 0.364495)" d="M273.842 321.814C451.652 313.624 637.316 466.005 683.199 634.497C724.165 784.94 668.841 930.441 512.136 976.491C512.491 966.179 512.718 955.861 512.819 945.542C508.292 839.454 529.903 735.664 465.504 640.881C409.686 558.728 321.371 507.373 220.594 512.889C172.719 515.511 140.745 530.999 101.656 557.33C103.26 499.943 102.082 437.485 101.991 379.746C158.551 338.09 205.101 325.475 273.842 321.814Z"/><path fill="#00FF94" transform="scale(0.364258 0.364495)" d="M218.155 536.393C258.046 530.742 317.407 547.278 351.544 567.863C407.598 601.648 454.236 658.838 470.099 723.019C497.961 835.734 430.126 944.003 318.195 972.391C316.969 965.247 317.607 944.43 317.579 935.666L317.723 865.333C317.787 849.254 318.122 833.312 317.018 817.37C311.571 738.737 232.582 684.144 157.506 711.581C133.156 720.483 120.786 731.283 102.465 749.438L102.26 581.085C144.052 551.669 166.724 541.455 218.155 536.393Z"/><path fill="#00FF94" transform="scale(0.364258 0.364495)" d="M532.558 102.28C560.146 104.215 598.848 102.17 627.623 102.685C727.878 104.479 828.439 100.861 928.783 102.477L928.801 361.253C928.651 406.893 926.861 460.814 928.559 505.509L928.203 508.692C924.862 505.506 912.57 469.562 909.363 461.7C857.38 334.184 761.024 224.697 642.438 155.003C606.949 134.146 570.124 118.36 532.558 102.28Z"/><path fill="#00FF94" transform="scale(0.364258 0.364495)" d="M102.651 845.35L289.621 845.559C284.477 880.542 262.108 912.285 237.79 936.779C202.652 971.812 150.841 987.971 102.369 991.525L102.651 845.35Z"/><path fill="#00FF94" transform="scale(0.364258 0.364495)" d="M184.232 732.282C238.489 727.732 283.21 764.151 290.892 817.768C266.676 820.056 232.754 819.096 207.683 819.041C171.814 819.381 135.942 819.274 100.075 818.722C107.486 770.719 137.526 742.349 184.232 732.282Z"/><path fill="#00FF94" transform="scale(0.364258 0.364495)" d="M926.563 811.808C931.26 826.596 928.118 965.605 928.093 990.547C868.596 991.672 807.079 987.652 748.272 990.798C744.995 991.12 744.164 990.805 740.847 990.452C796.724 975.09 843.248 949.648 879.898 903.702C898.521 880.355 922.888 842.02 926.563 811.808Z"/><path fill="#00FF94" transform="scale(0.364258 0.364495)" d="M702.594 821.982C703.4 825.076 702.303 856.812 702.263 863.119C701.852 905.257 701.849 947.398 702.254 989.532C644.36 989.915 583.104 990.341 525.406 991.688L525.734 989.983C613.182 975.767 679.606 905.662 702.594 821.982Z"/><path fill="#00FF94" transform="scale(0.364258 0.364495)" d="M487.897 838.797C488.863 841.511 487.116 974.666 487.554 990.63C435.561 991.783 371.059 987.987 320.831 991.234L320.068 990.713C321.454 988.502 331.468 988.161 334.828 987.453C411.026 971.376 468.83 912.806 487.897 838.797Z"/><path fill="#00FF94" transform="scale(0.364258 0.364495)" d="M286.109 908.004C286.557 911.215 285.675 924.477 285.627 928.917C285.408 949.36 283.921 970.38 286.617 990.697C253.604 991.838 219.409 990.041 185.815 991.221L184.671 989.878C225.296 979.925 265.505 943.549 286.109 908.004Z"/></g></svg>